PathFileType	4	(X/Y/Z)	28_1_14_p1_0-292.trc
DataRate	CameraRate	NumFrames	NumMarkers	Units	OrigDataRate	OrigDataStartFrame	OrigNumFrames
59.0	59.0	6	27	m	59.0	256	293
Frame#	Time	RHip			RKnee			RAnkle			RBigToe			RSmallToe			RHeel			LHip			LKnee			LAnkle			LBigToe			LSmallToe			LHeel			Neck			Head			Nose			RShoulder			RElbow			RWrist			RThumb			RIndex			RPinky			LShoulder			LElbow			LWrist			LThumb			LIndex			LPinky			
		X1	Y1	Z1	X2	Y2	Z2	X3	Y3	Z3	X4	Y4	Z4	X5	Y5	Z5	X6	Y6	Z6	X7	Y7	Z7	X8	Y8	Z8	X9	Y9	Z9	X10	Y10	Z10	X11	Y11	Z11	X12	Y12	Z12	X13	Y13	Z13	X14	Y14	Z14	X15	Y15	Z15	X16	Y16	Z16	X17	Y17	Z17	X18	Y18	Z18	X19	Y19	Z19	X20	Y20	Z20	X21	Y21	Z21	X22	Y22	Z22	X23	Y23	Z23	X24	Y24	Z24	X25	Y25	Z25	X26	Y26	Z26	X27	Y27	Z27	
256	4.338983050847458	0.21810578875064765	0.5875811173559456	0.958639107120121	0.21035285229551526	0.8139840515776812	1.3319764977120911	0.21887163522835834	1.0248624552066485	1.7251304205765674	0.19016873892627004	0.9097245423397973	1.8077127348065207	0.25483944735722897	0.8918037001344347	1.7969925883263005	0.19853693142780016	1.1518889969981334	1.7769515009445236	-0.016582343242165256	0.5688229737939129	0.9607934253397347	0.00995545756494221	0.7975496354184277	1.3452338933302108	0.01999525783122131	1.0705601622772656	1.75334833044184	0.020104892787967583	0.8842505153598791	1.7986417005227766	-0.03763785095634783	0.9422745405374363	1.8051286236655575	0.04602065618479541	1.1309421892832159	1.7809791785935345	0.0801017801235109	0.36059441612168697	0.32910216388997027	0.07877888207600281	0.17927240093823799	0.1349261249444628	0.08273143941828748	0.186493937010383	0.2691049896244343	0.25324413789489875	0.36845100679242676	0.43118281083725046	0.34154839543581966	0.478449754441438	0.6922212518143481	0.35769478165103746	0.46723957435832036	0.9715914274711421	0.31595965242479923	0.5034679570246203	1.1047502112859133	0.33017587089728545	0.490660652794174	1.1114100367352135	0.35769621389548595	0.5222703836190539	1.1005741832832492	-0.09469111039976903	0.41654930292707515	0.4173885977247138	-0.13889370645058147	0.47717258218095904	0.7141511950296154	-0.17303528721975686	0.517461384002212	0.973887914926041	-0.1266889490502662	0.5321134133729826	1.0671915877735658	-0.16116959863788052	0.5165597545931643	1.0857004102746621	-0.1956183197559231	0.5960391850913311	1.0818403691043852
257	4.3559322033898304	0.2223430043920266	0.6004787802338433	0.9578390377738597	0.20680654461801137	0.8149281826221917	1.3362538533988277	0.2188249612671929	1.0247654697338393	1.7251694125549983	0.19019438744854605	0.9099217546030534	1.8075481621637641	0.2548172806353713	0.8917164555077912	1.7969487726679128	0.19857612966390764	1.1518937963785805	1.7768624215900934	-0.01618383893389174	0.5694257334253975	0.964780125646791	0.010992755298227845	0.800490175340337	1.349588582249175	0.020023481099657237	1.0704156898745527	1.753468465078139	0.02019805741283119	0.8836677333348282	1.7983772625183654	-0.037442980700546594	0.9421683253751317	1.8050026948151332	0.046000985935708234	1.131586220994669	1.7812044763316814	0.08008477900164145	0.360633299375592	0.329062564895918	0.0787500880044746	0.1793505240619654	0.13490567746192683	0.08291364171565554	0.18731355990508824	0.27204806483422955	0.2531431364911782	0.3683857011611966	0.4311518789084093	0.3413231965191773	0.4783671057843592	0.6921205360973736	0.34889877329632846	0.45505718937822087	0.9724431366075963	0.3149576091656418	0.5004207885241878	1.101404456606081	0.3294985170632647	0.48810730012661835	1.1121181559557103	0.3538831751073834	0.4996262980903574	1.1005825202211994	-0.09474394700900854	0.416604402305653	0.41735551784229324	-0.13610875476602483	0.4864874701905687	0.7099302836090762	-0.16162864601119015	0.5184495465789651	0.9731269975743397	-0.121801534148229	0.5190575150183411	1.066725467505607	-0.1563820995386118	0.5039723106911204	1.0859481657318517	-0.1859825423081792	0.5682287840135042	1.0816067407122072
258	4.372881355932203	0.2182074386118777	0.5877623179821099	0.9582693634977957	0.20902523615752835	0.7949212938720002	1.3306514935798945	0.21883136584813523	1.0247474255582243	1.725061472635903	0.18707774121966309	0.9273866603271678	1.8113134394389596	0.25479689573092984	0.8914760905452325	1.7968454187786143	0.20337165540608362	1.169374073443346	1.7798940380787305	-0.01614601599277297	0.5694180581028895	0.9643894918560867	0.010042195725451881	0.7974607074498482	1.3451359469379942	0.020046100697585705	1.070505144757595	1.7534862554055708	0.02017562403940193	0.8845053300403127	1.798620599157979	-0.03752567357759722	0.9430679704230038	1.8052465366891357	0.04647915516514494	1.1325461743878193	1.7811063502958582	0.08007784765863607	0.36072671368974607	0.3290654058989718	0.07869908698807272	0.17945268849222146	0.1348098538492923	0.08288720064567415	0.18727941942736043	0.2720350842523862	0.25316374349244797	0.3684558841270098	0.4311147044032108	0.3412850539475474	0.47823434397618625	0.6920862558159919	0.34000158497318106	0.4429051149485135	0.9734999626859994	0.3155487607459069	0.5030258569941917	1.1048990035979551	0.32162739862794215	0.4790959640948864	1.1118371562983325	0.34338381665502665	0.49532113093305286	1.0978539549523327	-0.09472815401533138	0.41671978615739763	0.41727999409355615	-0.13880663517179065	0.47375061975251775	0.7078036751057674	-0.16118388378453155	0.5175394983589047	0.973838660961961	-0.12130660655939085	0.518153325170738	1.0666830133531462	-0.1523690281396051	0.5067213057002711	1.0891943754486428	-0.18037259685773738	0.5566644306825695	1.0853407814159013
259	4.389830508474576	0.21440086760877963	0.5737268102209376	0.9555145717857655	0.20458937956089265	0.7813569142482187	1.3299500582139945	0.21882455347444862	1.0248578546154787	1.725179614559573	0.18297870652491835	0.9138826134957919	1.803708746404099	0.2545993039370576	0.8922542218936723	1.7927553443878845	0.20338418973319222	1.1695411855994131	1.7800212568426435	-0.01920935089768168	0.5567181574660786	0.9653040325981409	0.010712874154240347	0.7958001768438577	1.3412755720647402	0.020107868192447576	1.0705135947213644	1.7534770111146616	0.020127718750916825	0.8839447122624168	1.7984535167439517	-0.03656598301216244	0.9406815564829406	1.8009675919214152	0.04688909393662337	1.13399468672706	1.781108227195267	0.08005128488938423	0.36060835991322565	0.32907067884118385	0.0787146086359503	0.179458829134719	0.1348103485680121	0.08263683353013827	0.18652611747697084	0.26911764770636515	0.25303866884673737	0.36826776378333387	0.43116642441730774	0.3412576050601029	0.4783192497671381	0.6920326195473161	0.33936863181999144	0.44206669174546914	0.9703832619753259	0.30622643298972446	0.48836171356960834	1.1022521772985017	0.32322464978904497	0.4641488198957652	1.111628838026847	0.34249809076046855	0.4956509003706077	1.1009781505435945	-0.09474143252499094	0.41656693961353397	0.4172863517080952	-0.13846623447824466	0.4745613155082386	0.7117688772874151	-0.14880317214716055	0.5080001951848555	0.9737370805771235	-0.11628453540945387	0.5045188883406883	1.0661473430809671	-0.1482121562113798	0.5202108932354662	1.0922911302535963	-0.16649676987107165	0.5323432937636953	1.0889843627659233
260	4.406779661016949	0.21444411270748712	0.5737707800753732	0.9554477565325824	0.20484856036935586	0.7816105466403728	1.3338541123214462	0.2155030535339792	1.0426556506738556	1.728605274797134	0.1859695872474375	0.8960960952040512	1.7997833838439765	0.2544995931633299	0.8916613016414155	1.7927393219686634	0.20339940645024154	1.1698057419254597	1.77989012586253	-0.01674767342295114	0.5670482943119265	0.9605776721477399	0.01008086059611728	0.797301803259546	1.3450138965131109	0.019989238833701135	1.0705579968116736	1.7535464600889659	0.02408263778180009	0.8675542419352408	1.7946226748687426	-0.037822945726946604	0.9425004128895093	1.8010940842842096	0.04659747097862881	1.1341553735401535	1.7813114357917155	0.08005260019942413	0.3606684982525257	0.3291157429198474	0.07872547473971823	0.17954716992726338	0.1347558325422158	0.08286637216001101	0.18719688318897104	0.27203118806415566	0.25311060565899324	0.3684899753173358	0.4311001260565043	0.3368568176266748	0.47973133478078056	0.6952833228493867	0.3308107247008985	0.43048781367055455	0.9716756578830887	0.30038424680374387	0.4901874135060373	1.0996748597426023	0.3213268399081164	0.4778318168359776	1.115833044382863	0.34044344522146675	0.47154001617940755	1.1012529436699625	-0.09475954364922093	0.41653038959117183	0.4173579486499866	-0.13629585080643725	0.48588728824332034	0.7060258575288836	-0.14460522852915653	0.5095249298393036	0.9738309289297724	-0.10762069248796254	0.4797069812876467	1.0660618452230664	-0.13927220612029348	0.5122679859249005	1.0956533403533895	-0.16222414026118329	0.5484242160590357	1.092556275182052
261	4.423728813559322	0.2143916067395372	0.5735289010774627	0.9553278056335235	0.20492230067672895	0.7814795617258599	1.3338922068376953	0.21884379957776437	1.0248479335967176	1.7250747027310787	0.1898808552973103	0.9104098780199028	1.8027777688120283	0.2546423086129692	0.8921738223286555	1.7927386071470828	0.20339653305927952	1.1696246478772427	1.7798179141437644	-0.019309313553171788	0.5567324972251736	0.9650353358900193	0.010674047596670217	0.7953754742981145	1.340823116378975	0.01999926598024079	1.070656304310582	1.7536075616057654	0.024060264659865934	0.8678603266928178	1.7947176244767504	-0.037814722520366065	0.9430832786298937	1.8011831830206655	0.046745680954248615	1.134683241197072	1.7813284955864694	0.08004580835387001	0.3606757045844125	0.32909307847314895	0.07574974871924743	0.1897283564214343	0.13106561244027554	0.08260533107583781	0.18645798823199183	0.2691301297858487	0.2530491824218223	0.3684489246235971	0.4310905399698275	0.33690966199873945	0.4789710194602177	0.692236895189899	0.3306507285911841	0.4302192633916167	0.9716063474262995	0.2975020691477381	0.4615652427094589	1.0964837065976352	0.315705461475805	0.4619346618911948	1.1101112204039696	0.337343546740396	0.48407017220551896	1.1040718011372177	-0.09470538880751193	0.41651787542114516	0.41727845639383415	-0.13596567465120504	0.4847134910294718	0.7027210978472563	-0.14054264055747295	0.5104497216484172	0.9734657683972909	-0.09691634578287667	0.4669980239252345	1.0661103140182973	-0.13033472246885908	0.501171084963028	1.0956918357783545	-0.15284532727619304	0.5406343624751077	1.0965034827127262
